HIERARCHY
ROOT hip
{
  OFFSET 5.51535 103.731 -2.80141
  CHANNELS 6 Xposition Yposition Zposition Zrotation Xrotation Yrotation
  JOINT abdomen
  {
    OFFSET 0 -1.186 -1.5018
    CHANNELS 6 Xposition Yposition Zposition Zrotation Xrotation Yrotation
    JOINT abdomen2
    {
      OFFSET 0 9.964 0.2134
      CHANNELS 6 Xposition Yposition Zposition Zrotation Xrotation Yrotation
      JOINT chest
      {
        OFFSET 0 13.134 -3.2573
        CHANNELS 6 Xposition Yposition Zposition Zrotation Xrotation Yrotation
        JOINT neck
        {
          OFFSET 0 20.686 -1.6905
          CHANNELS 6 Xposition Yposition Zposition Zrotation Xrotation Yrotation
          JOINT head
          {
            OFFSET 0 7.23801 -0.1237
            CHANNELS 6 Xposition Yposition Zposition Zrotation Xrotation Yrotation
            End Site
            {
              OFFSET 0 0 0
            }
          }
        }
        JOINT lCollar
        {
          OFFSET 1.7069 20.075 5.0056
          CHANNELS 6 Xposition Yposition Zposition Zrotation Xrotation Yrotation
          JOINT lShldr
          {
            OFFSET 13.6458 -0.0470195 -4.849
            CHANNELS 6 Xposition Yposition Zposition Zrotation Xrotation Yrotation
            JOINT lForeArm
            {
              OFFSET 28.3255 -0.97589 2.2888
              CHANNELS 6 Xposition Yposition Zposition Zrotation Xrotation Yrotation
              JOINT lHand
              {
                OFFSET 22.1583 -0.529998 10.8316
                CHANNELS 6 Xposition Yposition Zposition Zrotation Xrotation Yrotation
                JOINT lThumb1
                {
                  OFFSET 0.786 0.111997 2.5817
                  CHANNELS 6 Xposition Yposition Zposition Zrotation Xrotation Yrotation
                  JOINT lThumb2
                  {
                    OFFSET 0.360097 -0.877999 4.2331
                    CHANNELS 6 Xposition Yposition Zposition Zrotation Xrotation Yrotation
                    JOINT lThumb2_End
                    {
                      OFFSET 1.8127 -1.21601 2.2227
                      CHANNELS 6 Xposition Yposition Zposition Zrotation Xrotation Yrotation
                      End Site
                      {
                        OFFSET 0.0180981 -0.012195 0.0222007
                      }
                    }
                  }
                }
                JOINT lCarpal1
                {
                  OFFSET 0.9571 1.114 1.7695
                  CHANNELS 6 Xposition Yposition Zposition Zrotation Xrotation Yrotation
                  JOINT lIndex1
                  {
                    OFFSET 4.12461 0.486992 4.1451
                    CHANNELS 6 Xposition Yposition Zposition Zrotation Xrotation Yrotation
                    JOINT lIndex2
                    {
                      OFFSET 3.4052 -1.45401 2.7682
                      CHANNELS 6 Xposition Yposition Zposition Zrotation Xrotation Yrotation
                      JOINT lIndex2_End
                      {
                        OFFSET 1.45309 -1.79499 1.2713
                        CHANNELS 6 Xposition Yposition Zposition Zrotation Xrotation Yrotation
                        End Site
                        {
                          OFFSET 0.0144979 -0.0179083 0.0126995
                        }
                      }
                    }
                  }
                  JOINT lMid1
                  {
                    OFFSET 5.6954 0.209987 2.1184
                    CHANNELS 6 Xposition Yposition Zposition Zrotation Xrotation Yrotation
                    JOINT lMid2
                    {
                      OFFSET 3.9766 -1.53999 2.3863
                      CHANNELS 6 Xposition Yposition Zposition Zrotation Xrotation Yrotation
                      JOINT lMid2_End
                      {
                        OFFSET 1.4042 -1.926 1.125
                        CHANNELS 6 Xposition Yposition Zposition Zrotation Xrotation Yrotation
                        End Site
                        {
                          OFFSET 0.013999 -0.0193044 0.011301
                        }
                      }
                    }
                  }
                }
                JOINT lCarpal2
                {
                  OFFSET 2.0956 0.66 -0.3894
                  CHANNELS 6 Xposition Yposition Zposition Zrotation Xrotation Yrotation
                  JOINT lRing1
                  {
                    OFFSET 5.0395 -0.090013 2.4971
                    CHANNELS 6 Xposition Yposition Zposition Zrotation Xrotation Yrotation
                    JOINT lRing2
                    {
                      OFFSET 3.7921 -1.55199 1.4806
                      CHANNELS 6 Xposition Yposition Zposition Zrotation Xrotation Yrotation
                      JOINT lRing2_End
                      {
                        OFFSET 1.4655 -1.808 0.9609
                        CHANNELS 6 Xposition Yposition Zposition Zrotation Xrotation Yrotation
                        End Site
                        {
                          OFFSET 0.0147015 -0.0181014 0.00959957
                        }
                      }
                    }
                  }
                  JOINT lPinky1
                  {
                    OFFSET 4.9141 -1.269 0.3591
                    CHANNELS 6 Xposition Yposition Zposition Zrotation Xrotation Yrotation
                    JOINT lPinky2
                    {
                      OFFSET 3.1477 -1.685 0.8462
                      CHANNELS 6 Xposition Yposition Zposition Zrotation Xrotation Yrotation
                      JOINT lPinky2_End
                      {
                        OFFSET 0.805498 -1.58501 0.795499
                        CHANNELS 6 Xposition Yposition Zposition Zrotation Xrotation Yrotation
                        End Site
                        {
                          OFFSET 0.00809703 -0.0157944 0.00799848
                        }
                      }
                    }
                  }
                }
              }
            }
          }
        }
        JOINT rCollar
        {
          OFFSET -1.7069 20.075 5.0056
          CHANNELS 6 Xposition Yposition Zposition Zrotation Xrotation Yrotation
          JOINT rShldr
          {
            OFFSET -13.6458 -0.0470107 -4.849
            CHANNELS 6 Xposition Yposition Zposition Zrotation Xrotation Yrotation
            JOINT rForeArm
            {
              OFFSET -28.3255 -0.975895 2.2888
              CHANNELS 6 Xposition Yposition Zposition Zrotation Xrotation Yrotation
              JOINT rHand
              {
                OFFSET -22.1583 -0.530007 10.8316
                CHANNELS 6 Xposition Yposition Zposition Zrotation Xrotation Yrotation
                JOINT rThumb1
                {
                  OFFSET -0.785997 0.112005 2.5817
                  CHANNELS 6 Xposition Yposition Zposition Zrotation Xrotation Yrotation
                  JOINT rThumb2
                  {
                    OFFSET -0.360106 -0.877994 4.2331
                    CHANNELS 6 Xposition Yposition Zposition Zrotation Xrotation Yrotation
                    JOINT rThumb2_End
                    {
                      OFFSET -1.8127 -1.216 2.2227
                      CHANNELS 6 Xposition Yposition Zposition Zrotation Xrotation Yrotation
                      End Site
                      {
                        OFFSET -0.0180972 -0.0121973 0.0222005
                      }
                    }
                  }
                }
                JOINT rCarpal1
                {
                  OFFSET -0.9571 1.114 1.7695
                  CHANNELS 6 Xposition Yposition Zposition Zrotation Xrotation Yrotation
                  JOINT rIndex1
                  {
                    OFFSET -4.1246 0.487011 4.1451
                    CHANNELS 6 Xposition Yposition Zposition Zrotation Xrotation Yrotation
                    JOINT rIndex2
                    {
                      OFFSET -3.4052 -1.45401 2.7682
                      CHANNELS 6 Xposition Yposition Zposition Zrotation Xrotation Yrotation
                      JOINT rIndex2_End
                      {
                        OFFSET -1.4531 -1.795 1.2713
                        CHANNELS 6 Xposition Yposition Zposition Zrotation Xrotation Yrotation
                        End Site
                        {
                          OFFSET -0.0145077 -0.0180048 0.0127017
                        }
                      }
                    }
                  }
                  JOINT rMid1
                  {
                    OFFSET -5.6954 0.210002 2.1184
                    CHANNELS 6 Xposition Yposition Zposition Zrotation Xrotation Yrotation
                    JOINT rMid2
                    {
                      OFFSET -3.9766 -1.54 2.3863
                      CHANNELS 6 Xposition Yposition Zposition Zrotation Xrotation Yrotation
                      JOINT rMid2_End
                      {
                        OFFSET -1.4042 -1.926 1.125
                        CHANNELS 6 Xposition Yposition Zposition Zrotation Xrotation Yrotation
                        End Site
                        {
                          OFFSET -0.0139948 -0.0192916 0.0112994
                        }
                      }
                    }
                  }
                }
                JOINT rCarpal2
                {
                  OFFSET -2.0956 0.66 -0.3894
                  CHANNELS 6 Xposition Yposition Zposition Zrotation Xrotation Yrotation
                  JOINT rRing1
                  {
                    OFFSET -5.03951 -0.0899879 2.4971
                    CHANNELS 6 Xposition Yposition Zposition Zrotation Xrotation Yrotation
                    JOINT rRing2
                    {
                      OFFSET -3.7921 -1.55201 1.4806
                      CHANNELS 6 Xposition Yposition Zposition Zrotation Xrotation Yrotation
                      JOINT rRing2_End
                      {
                        OFFSET -1.4655 -1.808 0.960901
                        CHANNELS 6 Xposition Yposition Zposition Zrotation Xrotation Yrotation
                        End Site
                        {
                          OFFSET -0.0146934 -0.0180999 0.00959832
                        }
                      }
                    }
                  }
                  JOINT rPinky1
                  {
                    OFFSET -4.91411 -1.26899 0.359202
                    CHANNELS 6 Xposition Yposition Zposition Zrotation Xrotation Yrotation
                    JOINT rPinky2
                    {
                      OFFSET -3.14769 -1.68501 0.846199
                      CHANNELS 6 Xposition Yposition Zposition Zrotation Xrotation Yrotation
                      JOINT rPinky2_End
                      {
                        OFFSET -0.805498 -1.585 0.7955
                        CHANNELS 6 Xposition Yposition Zposition Zrotation Xrotation Yrotation
                        End Site
                        {
                          OFFSET -0.00810035 -0.0158035 0.00800029
                        }
                      }
                    }
                  }
                }
              }
            }
          }
        }
      }
    }
  }
  JOINT lThigh
  {
    OFFSET 8.367 -8.2066 0.5982
    CHANNELS 6 Xposition Yposition Zposition Zrotation Xrotation Yrotation
    JOINT lShin
    {
      OFFSET 2.1923 -43.463 -0.4932
      CHANNELS 6 Xposition Yposition Zposition Zrotation Xrotation Yrotation
      JOINT lFoot
      {
        OFFSET 0.733301 -45.8593 -2.6451
        CHANNELS 6 Xposition Yposition Zposition Zrotation Xrotation Yrotation
        End Site
        {
          OFFSET 2.6618 -4.2699 12.3931
        }
      }
    }
  }
  JOINT rThigh
  {
    OFFSET -8.367 -8.2066 0.5982
    CHANNELS 6 Xposition Yposition Zposition Zrotation Xrotation Yrotation
    JOINT rShin
    {
      OFFSET -2.1923 -43.463 -0.4931
      CHANNELS 6 Xposition Yposition Zposition Zrotation Xrotation Yrotation
      JOINT rFoot
      {
        OFFSET -0.733299 -45.8593 -2.6451
        CHANNELS 6 Xposition Yposition Zposition Zrotation Xrotation Yrotation
        End Site
        {
          OFFSET -2.6618 -4.2699 12.3931
        }
      }
    }
  }
}
MOTION
Frames:	4
Frame Time:	0.0333333
15.9385 35.2497 -46.5779 13.1856 12.6674 -48.228 -1.20041e-006 -1.186 -1.5018 0.0821077 -0.607223 1.40595 -4.86987e-007 9.964 0.2134 0.179088 -1.21224 2.81302 4.54203e-007 13.134 -3.2573 0.179086 -1.21224 2.81302 -7.85934e-007 20.686 -1.6905 -1.93946 -34.5327 -8.16717 2.14621e-006 7.23803 -0.123699 6.02836 -5.57095 -3.87638 1.7069 20.075 5.0056 0.443196 -0.764451 -7.312 13.6458 -0.0470133 -4.849 -55.1002 5.81296 -51.6826 28.3255 -0.975896 2.2888 -28.3586 -5.5928 -79.2808 22.1583 -0.529988 10.8316 -6.7242 -10.3278 22.513 0.786003 0.111997 2.5817 29.0017 36.8211 -34.7961 0.360099 -0.877998 4.2331 -6.33704 -0.117351 -11.5742 1.8127 -1.21601 2.2227 6.48485 1.48412 12.0601 0.9571 1.114 1.7695 1.37935e-033 7.95139e-016 -9.93923e-017 4.1246 0.486992 4.14511 -4.88734 4.53856 12.6178 3.4052 -1.454 2.7682 -36.3635 10.0329 17.8993 1.4531 -1.79499 1.2713 -37.4308 10.1388 18.4808 5.6954 0.209988 2.11841 -1.58699 -0.577029 1.618 3.9766 -1.53999 2.3863 -43.8284 12.176 22.7531 1.4042 -1.926 1.125 -9.03166 4.06867 4.02205 2.0956 0.66 -0.3894 1.37935e-033 7.95139e-016 -9.93923e-017 5.0395 -0.0900131 2.4971 -8.44086 -1.94815 5.79528 3.7921 -1.55199 1.4806 -14.2679 6.48282 7.41471 1.4655 -1.808 0.960903 -15.7294 7.01836 8.23422 4.9141 -1.269 0.359103 10.4039 -12.5937 2.33183 3.1477 -1.685 0.846199 -18.2185 8.51745 9.60865 0.805499 -1.58501 0.795496 -8.80546 4.5937 4.39821 -1.7069 20.075 5.0056 -12.7388 -0.805361 32.8297 -13.6458 -0.0470077 -4.849 43.4206 -26.064 39.4243 -28.3255 -0.975888 2.2888 18.889 -13.7053 97.3992 -22.1583 -0.530015 10.8316 -18.2403 -33.1627 -49.6081 -0.786 0.112005 2.5817 -29.9218 33.5002 36.3092 -0.360106 -0.877992 4.2331 3.27635 -2.39822 9.40457 -1.81269 -1.216 2.2227 -4.44364 5.02822 -15.2679 -0.9571 1.114 1.7695 1.59028e-015 3.97569e-016 -0 -4.12461 0.487011 4.1451 13.181 6.35507 -12.1375 -3.4052 -1.45401 2.7682 44.351 10.8048 -10.7983 -1.4531 -1.795 1.2713 45.4781 10.9508 -11.1601 -5.6954 0.210002 2.1184 7.07145 1.28864 -2.16557 -3.9766 -1.54 2.3863 52.3089 13.53 -14.1043 -1.4042 -1.926 1.125 15.1721 5.32231 -2.78764 -2.0956 0.66 -0.3894 1.59028e-015 3.97569e-016 -0 -5.03951 -0.0899884 2.4971 14.479 -0.343125 -5.30921 -3.7921 -1.55201 1.4806 20.9794 7.6928 -5.18754 -1.4655 -1.808 0.960903 22.5759 8.18076 -5.68276 -4.91411 -1.26899 0.359199 -6.22068 -8.66598 -6.14888 -3.14769 -1.68501 0.8462 25.2632 9.756 -6.40171 -0.805499 -1.585 0.795503 14.9452 6.18834 -3.3034 8.367 -8.2066 0.598199 53.5243 -43.3707 34.8632 2.19229 -43.463 -0.493205 -179.337 38.2778 -178.084 0.733308 -45.8593 -2.6451 4.76478 21.7931 -35.7314 -8.36701 -8.2066 0.59819 -50.7526 -21.0405 -25.0531 -2.19234 -43.463 -0.493117 161.69 38.5469 -153.004 -0.733272 -45.8593 -2.64511 -4.64439 18.1838 31.094 
14.4416 36.0326 -45.1552 16.1891 16.1243 -47.7905 1.38348e-006 -1.186 -1.5018 0.135516 -1.75151 1.37412 -7.61203e-007 9.964 0.2134 0.313237 -3.49927 2.75428 -7.58137e-008 13.134 -3.2573 0.313235 -3.49926 2.75431 5.79536e-007 20.686 -1.6905 -2.28287 -35.6369 -8.95722 9.58825e-006 7.23804 -0.123698 5.60599 -5.25009 -4.22188 1.7069 20.075 5.0056 0.239966 -0.817621 -6.62838 13.6458 -0.047019 -4.849 -55.9571 6.51919 -48.6033 28.3255 -0.975902 2.2888 -31.2246 0.827941 -81.6312 22.1583 -0.529991 10.8316 -4.11664 -9.04882 23.1109 0.786003 0.111997 2.58171 29.0018 36.8211 -34.7961 0.360097 -0.877998 4.2331 -6.33706 -0.117385 -11.5742 1.8127 -1.21601 2.2227 6.48484 1.48412 12.0601 0.9571 1.114 1.7695 -7.95139e-016 -7.95139e-016 -5.96354e-016 4.1246 0.486993 4.1451 -4.88728 4.53868 12.6178 3.4052 -1.454 2.7682 -36.3635 10.0329 17.8992 1.4531 -1.79499 1.2713 -37.4307 10.1387 18.4808 5.6954 0.209988 2.1184 -1.58699 -0.57702 1.61799 3.9766 -1.53999 2.3863 -43.8283 12.1761 22.7531 1.4042 -1.926 1.125 -9.03166 4.06866 4.02206 2.0956 0.66 -0.3894 -7.95139e-016 -7.95139e-016 -5.96354e-016 5.0395 -0.0900129 2.4971 -8.44086 -1.94817 5.79527 3.7921 -1.55199 1.4806 -14.2679 6.48283 7.41471 1.4655 -1.808 0.9609 -15.7294 7.01834 8.23422 4.9141 -1.269 0.359099 10.4039 -12.5937 2.33183 3.1477 -1.685 0.8462 -18.2185 8.51746 9.60864 0.805498 -1.58501 0.795503 -8.80545 4.59368 4.3982 -1.7069 20.075 5.0056 -11.5604 -0.93697 32.2836 -13.6458 -0.0470088 -4.849 43.5589 -23.768 36.6071 -28.3255 -0.975889 2.2888 21.1117 -11.923 102.982 -22.1583 -0.530001 10.8316 -17.7963 -31.7976 -51.0795 -0.786001 0.112006 2.5817 -29.9218 33.5003 36.3093 -0.360104 -0.877993 4.2331 3.27635 -2.39819 9.40457 -1.8127 -1.216 2.2227 -4.44369 5.02828 -15.2679 -0.9571 1.114 1.7695 -1.59028e-015 2.2736e-015 9.93923e-017 -4.12461 0.487011 4.1451 13.181 6.3551 -12.1375 -3.4052 -1.45401 2.7682 44.351 10.8049 -10.7983 -1.4531 -1.795 1.2713 45.4781 10.9508 -11.1601 -5.6954 0.210002 2.1184 7.07143 1.28868 -2.16557 -3.9766 -1.54 2.3863 52.3089 13.53 -14.1043 -1.4042 -1.926 1.125 15.1721 5.32229 -2.78764 -2.0956 0.66 -0.3894 -1.59028e-015 2.2736e-015 9.93923e-017 -5.03951 -0.0899872 2.4971 14.479 -0.343132 -5.30922 -3.7921 -1.55201 1.4806 20.9794 7.69281 -5.18754 -1.4655 -1.808 0.960902 22.5759 8.18063 -5.68283 -4.91411 -1.26899 0.359204 -6.22067 -8.66597 -6.14888 -3.1477 -1.68501 0.846199 25.2632 9.75602 -6.40174 -0.805501 -1.585 0.795496 14.9452 6.18835 -3.30337 8.367 -8.2066 0.5982 55.5964 -45.3155 38.3841 2.1923 -43.463 -0.493195 -179.399 40.2098 -178.013 0.733305 -45.8593 -2.6451 5.01936 21.435 -35.3111 -8.367 -8.2066 0.598201 -50.4762 -21.6613 -29.368 -2.19231 -43.4631 -0.49311 160.62 40.8694 -152.384 -0.733319 -45.8593 -2.6451 -3.92743 18.6564 30.5787 
12.8483 36.9662 -43.6827 18.4397 18.9411 -47.4206 3.23579e-007 -1.186 -1.5018 0.172108 -2.71469 1.35358 -1.00938e-006 9.964 0.2134 0.40917 -5.42452 2.71981 4.89529e-008 13.134 -3.2573 0.409171 -5.42453 2.71983 -1.50689e-006 20.686 -1.6905 -2.64048 -36.5265 -9.75766 2.8315e-006 7.23801 -0.1237 5.11779 -4.90046 -4.58412 1.7069 20.075 5.0056 -0.0853945 -0.887076 -5.8076 13.6458 -0.0470127 -4.849 -56.6276 7.12665 -45.3572 28.3255 -0.975896 2.2888 -33.2939 7.23492 -82.8436 22.1583 -0.529991 10.8316 -1.8965 -8.19744 22.8664 0.786003 0.111998 2.5817 29.0018 36.8212 -34.7962 0.360099 -0.877997 4.2331 -6.33709 -0.117399 -11.5742 1.8127 -1.21601 2.2227 6.48484 1.48411 12.0601 0.9571 1.114 1.7695 7.95139e-016 0 -9.93923e-016 4.1246 0.486993 4.1451 -4.8873 4.53866 12.6179 3.4052 -1.45401 2.7682 -36.3636 10.0328 17.8992 1.4531 -1.79499 1.2713 -37.4307 10.1388 18.4808 5.6954 0.209988 2.1184 -1.587 -0.577037 1.618 3.9766 -1.53999 2.3863 -43.8284 12.1761 22.7531 1.4042 -1.926 1.125 -9.03165 4.06865 4.02209 2.0956 0.66 -0.3894 7.95139e-016 0 -9.93923e-016 5.0395 -0.0900129 2.4971 -8.44089 -1.94821 5.79527 3.7921 -1.55199 1.4806 -14.2679 6.48284 7.41471 1.4655 -1.808 0.9609 -15.7294 7.01835 8.23424 4.9141 -1.269 0.359105 10.4039 -12.5937 2.33184 3.1477 -1.685 0.846199 -18.2185 8.51745 9.60864 0.805497 -1.58501 0.795502 -8.80546 4.59369 4.3982 -1.7069 20.075 5.0056 -10.4029 -1.05478 31.8214 -13.6458 -0.0470105 -4.849 43.7127 -21.1958 33.3341 -28.3255 -0.975892 2.28881 23.7264 -8.83057 108.248 -22.1583 -0.529998 10.8316 -17.9384 -29.6042 -51.5442 -0.786001 0.112005 2.5817 -29.9217 33.5002 36.3092 -0.360106 -0.877993 4.2331 3.27633 -2.39817 9.4046 -1.81269 -1.216 2.2227 -4.44361 5.02816 -15.268 -0.9571 1.114 1.7695 7.95139e-016 8.04457e-016 1.49089e-016 -4.12461 0.487014 4.1451 13.181 6.3552 -12.1375 -3.4052 -1.45401 2.7682 44.351 10.8049 -10.7983 -1.4531 -1.795 1.2713 45.4781 10.9508 -11.1601 -5.6954 0.210003 2.1184 7.07142 1.28878 -2.16558 -3.9766 -1.54 2.3863 52.3089 13.53 -14.1043 -1.4042 -1.926 1.125 15.1721 5.3223 -2.78765 -2.0956 0.66 -0.3894 7.95139e-016 8.04457e-016 1.49089e-016 -5.03951 -0.0899864 2.4971 14.4791 -0.343115 -5.3092 -3.7921 -1.55201 1.4806 20.9794 7.69286 -5.18752 -1.4655 -1.808 0.960898 22.5759 8.18062 -5.68284 -4.91411 -1.26899 0.359202 -6.22065 -8.66597 -6.14887 -3.1477 -1.68501 0.846202 25.2632 9.75606 -6.40172 -0.805499 -1.585 0.795498 14.9452 6.18835 -3.30338 8.36701 -8.2066 0.598204 56.6653 -46.2922 40.6999 2.1923 -43.463 -0.493204 -179.456 42.5304 -177.995 0.733297 -45.8593 -2.64508 5.21856 21.0502 -34.6218 -8.36701 -8.2066 0.59819 -49.5881 -21.7119 -32.6658 -2.19229 -43.463 -0.493096 159.261 43.5942 -151.501 -0.733281 -45.8593 -2.64509 -3.23757 19.4381 30.2138 
11.2282 37.9694 -42.2505 19.9422 21.0722 -47.0415 1.15702e-006 -1.186 -1.5018 0.193474 -3.48319 1.33896 7.83098e-007 9.964 0.213401 0.469961 -6.96083 2.69718 -6.19907e-007 13.134 -3.2573 0.469959 -6.96084 2.6972 -1.21509e-005 20.6862 -1.69052 -2.97498 -37.1005 -10.5236 1.44428e-005 7.23807 -0.123695 4.58462 -4.57207 -4.92253 1.7069 20.075 5.0056 -0.40285 -0.972425 -4.89489 13.6458 -0.0470177 -4.84901 -57.0844 7.58901 -42.0997 28.3255 -0.975896 2.28879 -34.7879 13.182 -83.1072 22.1583 -0.529987 10.8316 -0.174106 -7.73217 21.8536 0.786003 0.111996 2.5817 29.0019 36.8213 -34.7962 0.360098 -0.877997 4.2331 -6.33714 -0.117449 -11.5742 1.8127 -1.21601 2.2227 6.48482 1.48408 12.0601 0.9571 1.114 1.7695 -7.95139e-016 7.95139e-016 -1.04362e-015 4.12461 0.486992 4.1451 -4.88728 4.53866 12.6178 3.4052 -1.454 2.7682 -36.3635 10.0329 17.8993 1.4531 -1.79499 1.2713 -37.4307 10.1388 18.4808 5.6954 0.209987 2.1184 -1.587 -0.577048 1.618 3.9766 -1.53999 2.3863 -43.8283 12.1761 22.7531 1.4042 -1.926 1.125 -9.03165 4.06861 4.02208 2.0956 0.66 -0.3894 -7.95139e-016 7.95139e-016 -1.04362e-015 5.0395 -0.0900135 2.4971 -8.4409 -1.94823 5.79526 3.7921 -1.55199 1.4806 -14.2679 6.48283 7.41469 1.4655 -1.808 0.960898 -15.7293 7.01833 8.23422 4.9141 -1.269 0.359103 10.4039 -12.5937 2.33183 3.1477 -1.685 0.846199 -18.2185 8.51743 9.60863 0.805497 -1.58501 0.795502 -8.80545 4.59368 4.3982 -1.7069 20.075 5.0056 -9.26499 -1.15134 31.4424 -13.6458 -0.047011 -4.849 43.8195 -18.5034 29.6704 -28.3255 -0.975885 2.28881 26.3502 -4.47342 112.688 -22.1583 -0.52999 10.8316 -18.5686 -26.7527 -50.8005 -0.786002 0.112006 2.5817 -29.9217 33.5002 36.3092 -0.360106 -0.877995 4.2331 3.27626 -2.39813 9.40462 -1.81269 -1.216 2.2227 -4.4436 5.02815 -15.268 -0.9571 1.114 1.7695 9.93923e-017 9.94045e-016 1.2424e-017 -4.12461 0.48701 4.14511 13.181 6.35503 -12.1375 -3.4052 -1.45401 2.7682 44.351 10.8049 -10.7983 -1.4531 -1.795 1.2713 45.4781 10.9509 -11.1601 -5.69541 0.210002 2.1184 7.07147 1.2886 -2.16556 -3.9766 -1.54 2.3863 52.3088 13.53 -14.1044 -1.4042 -1.926 1.125 15.1721 5.32231 -2.78763 -2.0956 0.66 -0.3894 9.93923e-017 9.94045e-016 1.2424e-017 -5.03951 -0.0899868 2.4971 14.479 -0.343131 -5.30922 -3.7921 -1.55201 1.4806 20.9793 7.69298 -5.18752 -1.4655 -1.808 0.9609 22.5759 8.18064 -5.68283 -4.91411 -1.26899 0.359199 -6.22068 -8.66599 -6.14889 -3.1477 -1.68501 0.846201 25.2632 9.75617 -6.40171 -0.8055 -1.585 0.7955 14.9452 6.18835 -3.30339 8.36701 -8.2066 0.598206 56.7605 -46.4868 41.7618 2.1923 -43.463 -0.493201 -179.498 45.0541 -178.051 0.733291 -45.8593 -2.6451 5.39316 20.6991 -33.7152 -8.36701 -8.2066 0.598191 -48.1929 -21.2477 -34.9208 -2.19232 -43.463 -0.493107 157.651 46.5316 -150.315 -0.733312 -45.8593 -2.64509 -2.67091 20.4381 30.0234 
